<?xml version="1.0" encoding="UTF-8"?>
<svg xmlns="http://www.w3.org/2000/svg" xmlns:xlink="http://www.w3.org/1999/xlink" width="1500px" height="1500px" viewBox="0 0 1500 1500" version="1.1">
<g id="surface1">
<path style=" stroke:none;fill-rule:nonzero;fill:rgb(100%,100%,100%);fill-opacity:1;" d="M 336.925781 640.777344 L 281.785156 640.777344 C 280.722656 640.777344 279.660156 641.839844 279.660156 642.699219 L 279.660156 672.074219 L 336.925781 672.074219 C 340.769531 672.074219 362.050781 673.136719 362.050781 691.871094 C 362.050781 710.605469 341.191406 711.042969 336.925781 711.042969 L 279.660156 711.042969 L 279.660156 809.183594 C 279.660156 810.042969 280.722656 811.105469 281.785156 811.105469 L 309.472656 811.105469 C 310.957031 811.105469 311.597656 810.042969 311.597656 809.183594 L 311.597656 742.542969 L 336.925781 742.542969 C 340.972656 742.542969 394.425781 741.902344 394.425781 691.871094 C 394.425781 641.839844 343.738281 640.777344 336.925781 640.777344 Z M 336.925781 640.777344 "/>
<path style=" stroke:none;fill-rule:nonzero;fill:rgb(100%,100%,100%);fill-opacity:1;" d="M 559 808.339844 C 548.359375 784.699219 536.859375 761.277344 526.203125 737.230469 C 543.25 731.058594 557.515625 717.417969 557.515625 691.449219 C 557.515625 641.199219 509.609375 640.777344 500.015625 640.777344 L 444.875 640.777344 C 443.8125 640.777344 442.75 641.839844 442.75 642.699219 L 442.75 671.652344 L 500.015625 671.652344 C 505.125 671.652344 525.140625 672.714844 525.140625 691.449219 C 525.140625 710.183594 507.046875 711.042969 500.015625 711.042969 L 442.75 711.042969 L 442.75 809.183594 C 442.75 810.042969 443.8125 811.105469 444.875 811.105469 L 472.765625 811.105469 C 474.046875 811.105469 475.109375 810.042969 475.109375 809.183594 L 475.109375 742.339844 L 493.421875 742.339844 L 524.5 809.824219 C 524.71875 810.464844 526 811.105469 526.640625 811.105469 L 557.078125 811.105469 C 558.78125 811.105469 559.640625 809.824219 559 808.339844 Z M 559 808.339844 "/>
<path style=" stroke:none;fill-rule:nonzero;fill:rgb(100%,100%,100%);fill-opacity:1;" d="M 705.691406 726.371094 C 705.691406 717.417969 698.660156 710.183594 689.722656 710.183594 C 680.785156 710.183594 673.753906 717.417969 673.753906 726.371094 C 673.753906 735.089844 680.785156 742.339844 689.722656 742.339844 C 698.660156 742.339844 705.691406 735.089844 705.691406 726.371094 Z M 771.691406 725.730469 C 771.691406 683.355469 744.222656 640.777344 689.941406 640.777344 C 634.800781 640.777344 607.753906 683.355469 607.753906 725.730469 C 607.753906 768.308594 634.800781 811.105469 689.941406 811.105469 C 744.222656 811.105469 771.691406 768.308594 771.691406 725.730469 Z M 739.753906 726.371094 C 739.753906 753.839844 722.941406 781.292969 689.941406 781.292969 C 656.503906 781.292969 639.910156 753.839844 639.910156 726.371094 C 639.910156 698.480469 656.503906 670.792969 689.941406 670.792969 C 722.941406 670.792969 739.753906 698.480469 739.753906 726.371094 Z M 739.753906 726.371094 "/>
<path style=" stroke:none;fill-rule:nonzero;fill:rgb(100%,100%,100%);fill-opacity:1;" d="M 952.238281 672.074219 L 952.238281 642.699219 C 952.238281 641.839844 951.394531 640.777344 949.894531 640.777344 L 922.222656 640.777344 C 879.847656 640.777344 822.363281 653.121094 822.363281 725.949219 C 822.363281 801.527344 880.488281 811.105469 922.222656 811.105469 L 949.894531 811.105469 C 951.394531 811.105469 952.238281 810.042969 952.238281 809.183594 L 952.238281 704.871094 L 886.878906 704.871094 L 886.878906 737.433594 L 919.660156 737.433594 L 919.660156 780.027344 C 882.613281 781.933594 855.144531 766.386719 855.144531 725.949219 C 855.144531 673.355469 899.003906 671.230469 919.660156 672.074219 Z M 952.238281 672.074219 "/>
<path style=" stroke:none;fill-rule:nonzero;fill:rgb(100%,100%,100%);fill-opacity:1;" d="M 1099.359375 726.371094 C 1099.359375 717.417969 1092.328125 710.183594 1083.390625 710.183594 C 1074.453125 710.183594 1067.421875 717.417969 1067.421875 726.371094 C 1067.421875 735.089844 1074.453125 742.339844 1083.390625 742.339844 C 1092.328125 742.339844 1099.359375 735.089844 1099.359375 726.371094 Z M 1165.359375 725.730469 C 1165.359375 683.355469 1137.890625 640.777344 1083.609375 640.777344 C 1028.46875 640.777344 1001.421875 683.355469 1001.421875 725.730469 C 1001.421875 768.308594 1028.46875 811.105469 1083.609375 811.105469 C 1137.890625 811.105469 1165.359375 768.308594 1165.359375 725.730469 Z M 1133.421875 726.371094 C 1133.421875 753.839844 1116.609375 781.292969 1083.609375 781.292969 C 1050.171875 781.292969 1033.578125 753.839844 1033.578125 726.371094 C 1033.578125 698.480469 1050.171875 670.792969 1083.609375 670.792969 C 1116.609375 670.792969 1133.421875 698.480469 1133.421875 726.371094 Z M 1133.421875 726.371094 "/>
<path style=" stroke:none;fill-rule:nonzero;fill:rgb(100%,100%,100%);fill-opacity:1;" d="M 681.5 912.40625 L 681.5 877.03125 L 700.6875 877.03125 L 708.0625 884.46875 L 708.0625 904.96875 L 700.6875 912.40625 Z M 685.875 908.53125 L 698.75 908.53125 L 703.6875 903.46875 L 703.6875 885.96875 L 698.75 880.90625 L 685.875 880.90625 Z M 685.875 908.53125 "/>
<path style=" stroke:none;fill-rule:nonzero;fill:rgb(100%,100%,100%);fill-opacity:1;" d="M 720.683594 912.40625 L 720.683594 908.34375 L 724.996094 908.34375 L 724.996094 881.03125 L 720.683594 881.03125 L 720.683594 877.03125 L 733.683594 877.03125 L 733.683594 881.03125 L 729.371094 881.03125 L 729.371094 908.34375 L 733.683594 908.34375 L 733.683594 912.40625 Z M 720.683594 912.40625 "/>
<path style=" stroke:none;fill-rule:nonzero;fill:rgb(100%,100%,100%);fill-opacity:1;" d="M 751.355469 912.40625 L 746.417969 907.34375 L 746.417969 882.09375 L 751.480469 877.03125 L 768.292969 877.03125 L 773.167969 881.90625 L 770.355469 884.78125 L 766.542969 880.90625 L 753.417969 880.90625 L 750.792969 883.53125 L 750.792969 905.90625 L 753.417969 908.53125 L 764.042969 908.53125 L 769.542969 903.40625 L 769.542969 897.65625 L 761.355469 897.65625 L 761.355469 893.84375 L 773.167969 893.84375 L 773.167969 912.40625 L 769.542969 912.40625 L 769.542969 908.34375 L 765.167969 912.40625 Z M 751.355469 912.40625 "/>
<path style=" stroke:none;fill-rule:nonzero;fill:rgb(100%,100%,100%);fill-opacity:1;" d="M 786.824219 912.40625 L 786.824219 908.34375 L 791.136719 908.34375 L 791.136719 881.03125 L 786.824219 881.03125 L 786.824219 877.03125 L 799.824219 877.03125 L 799.824219 881.03125 L 795.511719 881.03125 L 795.511719 908.34375 L 799.824219 908.34375 L 799.824219 912.40625 Z M 786.824219 912.40625 "/>
<path style=" stroke:none;fill-rule:nonzero;fill:rgb(100%,100%,100%);fill-opacity:1;" d="M 820.4375 912.40625 L 820.4375 881.03125 L 809.9375 881.03125 L 809.9375 877.03125 L 835.3125 877.03125 L 835.3125 881.03125 L 824.8125 881.03125 L 824.8125 912.40625 Z M 820.4375 912.40625 "/>
<path style=" stroke:none;fill-rule:nonzero;fill:rgb(100%,100%,100%);fill-opacity:1;" d="M 843.167969 912.40625 L 855.105469 877.03125 L 861.855469 877.03125 L 873.855469 912.40625 L 869.292969 912.40625 L 866.230469 903.21875 L 850.730469 903.21875 L 847.730469 912.40625 Z M 852.042969 899.34375 L 864.980469 899.34375 L 859.042969 881.15625 L 857.917969 881.15625 Z M 852.042969 899.34375 "/>
<path style=" stroke:none;fill-rule:nonzero;fill:rgb(100%,100%,100%);fill-opacity:1;" d="M 885.214844 912.40625 L 885.214844 877.03125 L 889.589844 877.03125 L 889.589844 908.34375 L 907.402344 908.34375 L 907.402344 912.40625 Z M 885.214844 912.40625 "/>
<path style=" stroke:none;fill-rule:nonzero;fill:rgb(100%,100%,100%);fill-opacity:1;" d="M 932.257812 912.40625 L 944.195312 877.03125 L 950.945312 877.03125 L 962.945312 912.40625 L 958.382812 912.40625 L 955.320312 903.21875 L 939.820312 903.21875 L 936.820312 912.40625 Z M 941.132812 899.34375 L 954.070312 899.34375 L 948.132812 881.15625 L 947.007812 881.15625 Z M 941.132812 899.34375 "/>
<path style=" stroke:none;fill-rule:nonzero;fill:rgb(100%,100%,100%);fill-opacity:1;" d="M 978.300781 912.40625 L 973.363281 907.34375 L 973.363281 882.09375 L 978.425781 877.03125 L 995.238281 877.03125 L 1000.113281 881.90625 L 997.300781 884.78125 L 993.488281 880.90625 L 980.363281 880.90625 L 977.738281 883.53125 L 977.738281 905.90625 L 980.363281 908.53125 L 990.988281 908.53125 L 996.488281 903.40625 L 996.488281 897.65625 L 988.300781 897.65625 L 988.300781 893.84375 L 1000.113281 893.84375 L 1000.113281 912.40625 L 996.488281 912.40625 L 996.488281 908.34375 L 992.113281 912.40625 Z M 978.300781 912.40625 "/>
<path style=" stroke:none;fill-rule:nonzero;fill:rgb(100%,100%,100%);fill-opacity:1;" d="M 1014.957031 912.40625 L 1014.957031 877.03125 L 1038.269531 877.03125 L 1038.269531 881.03125 L 1019.332031 881.03125 L 1019.332031 891.84375 L 1036.269531 891.84375 L 1036.269531 895.78125 L 1019.332031 895.78125 L 1019.332031 908.34375 L 1038.269531 908.34375 L 1038.269531 912.40625 Z M 1014.957031 912.40625 "/>
<path style=" stroke:none;fill-rule:nonzero;fill:rgb(100%,100%,100%);fill-opacity:1;" d="M 1051.484375 912.40625 L 1051.484375 877.03125 L 1057.421875 877.03125 L 1073.234375 905.46875 L 1073.234375 877.03125 L 1077.609375 877.03125 L 1077.609375 912.40625 L 1072.421875 912.40625 L 1056.921875 884.46875 L 1055.859375 884.46875 L 1055.859375 912.40625 Z M 1051.484375 912.40625 "/>
<path style=" stroke:none;fill-rule:nonzero;fill:rgb(100%,100%,100%);fill-opacity:1;" d="M 1096.601562 912.40625 L 1091.539062 907.34375 L 1091.539062 882.09375 L 1096.601562 877.03125 L 1112.601562 877.03125 L 1117.476562 881.90625 L 1114.664062 884.78125 L 1110.851562 880.90625 L 1098.539062 880.90625 L 1095.914062 883.53125 L 1095.914062 905.90625 L 1098.539062 908.53125 L 1111.226562 908.53125 L 1115.101562 904.65625 L 1117.914062 907.46875 L 1112.914062 912.40625 Z M 1096.601562 912.40625 "/>
<path style=" stroke:none;fill-rule:nonzero;fill:rgb(100%,100%,100%);fill-opacity:1;" d="M 1138.875 912.40625 L 1138.875 898.21875 L 1126.5 877.03125 L 1131.5 877.03125 L 1140.5625 893.15625 L 1141.5 893.15625 L 1150.625 877.03125 L 1155.5625 877.03125 L 1143.25 898.21875 L 1143.25 912.40625 Z M 1138.875 912.40625 "/>
<path style="fill:none;stroke-width:1;stroke-linecap:butt;stroke-linejoin:miter;stroke:rgb(100%,100%,100%);stroke-opacity:1;stroke-miterlimit:4;" d="M -0.000156817 0.00012925 L 9.576232 0.00012925 " transform="matrix(36.029368,0,0,35.999996,279.6619,901.604722)"/>
</g>
</svg>
